<?xml version="1.0" encoding="utf-8"?>
<!-- Generator: Adobe Illustrator 23.0.3, SVG Export Plug-In . SVG Version: 6.00 Build 0)  -->
<svg version="1.1" id="Capa_1" xmlns="http://www.w3.org/2000/svg" xmlns:xlink="http://www.w3.org/1999/xlink" x="0px" y="0px"
	 viewBox="0 0 55 55" style="enable-background:new 0 0 55 55;" xml:space="preserve">
<style type="text/css">
	.st0{fill:#DDDEDE;}
	.st1{fill:#E6E6E6;}
	.st2{fill:#AAA7A5;}
</style>
<g>
	<path class="st0" d="M48,46.5H7c-1.8,0-3.5-0.9-4.6-2.4L0.2,41c-0.4-0.6,0-1.5,0.8-1.5h53.1c0.8,0,1.2,0.9,0.8,1.5l-2.3,3.2
		C51.5,45.6,49.8,46.5,48,46.5z"/>
	<path class="st1" d="M2,39.5c0-13.8,11.2-25,25-25s25,11.2,25,25H2z"/>
	<path class="st1" d="M31.4,15.9l-0.8-0.1c-2.4-0.4-4.9-0.4-7.2,0l-0.8,0.1l-0.3-0.8C22.1,14.5,22,14,22,13.5c0-2.8,2.2-5,5-5
		s5,2.2,5,5c0,0.5-0.1,1-0.3,1.6L31.4,15.9z M27,13.5c1,0,2,0.1,3,0.2c0-0.1,0-0.1,0-0.2c0-1.7-1.3-3-3-3s-3,1.3-3,3
		c0,0.1,0,0.1,0,0.2C25,13.6,26,13.5,27,13.5z"/>
	<path class="st2" d="M22.3,20c-0.5,0-0.9-0.3-1-0.8c-0.1-0.5,0.2-1.1,0.8-1.2c1.6-0.4,3.2-0.5,4.9-0.5c0.6,0,1,0.4,1,1
		c0,0.6-0.4,1-1,1l0,0c0,0,0,0,0,0c-1.5,0-3,0.2-4.4,0.5C22.5,20,22.4,20,22.3,20z"/>
	<path class="st2" d="M7,36.5c-0.1,0-0.1,0-0.2,0c-0.5-0.1-0.9-0.6-0.8-1.2c1.1-6.3,4.9-11.8,10.1-14.9c0.5-0.3,1.1-0.1,1.4,0.4
		s0.1,1.1-0.4,1.4C12.5,24.9,9,30,8,35.7C7.9,36.2,7.5,36.5,7,36.5z"/>
</g>
</svg>
